<?xml version="1.0" encoding="utf-8"?>
<!-- Generator: Adobe Illustrator 19.2.1, SVG Export Plug-In . SVG Version: 6.00 Build 0)  -->
<svg version="1.1" id="layer" xmlns="http://www.w3.org/2000/svg" xmlns:xlink="http://www.w3.org/1999/xlink" x="0px" y="0px"
	 viewBox="0 0 652 652" style="enable-background:new 0 0 652 652;" xml:space="preserve">
<style type="text/css">
	.st0{fill:#FDDA2A;}
	.st1{fill:#FFFFFF;}
	.st2{fill:#0C80C4;}
	.st3{fill-rule:evenodd;clip-rule:evenodd;fill:#0C80C4;}
	.st4{fill-rule:evenodd;clip-rule:evenodd;fill:#FFFFFF;}
	.st5{fill-rule:evenodd;clip-rule:evenodd;fill:#FDDA2A;}
</style>
<rect x="122.7" y="72.1" class="st0" width="395.3" height="465.8"/>
<rect x="131.9" y="81.4" class="st1" width="376.9" height="286"/>
<rect x="122.7" y="537.8" class="st2" width="395.3" height="34.2"/>
<g>
	<path class="st3" d="M320.6,109.6c67.4,0,122.3,55.6,122.3,123.8c0,68.2-54.9,123.8-122.3,123.8c-67.4,0-122.3-55.6-122.3-123.8
		C198.3,165.2,253.2,109.6,320.6,109.6"/>
	<path class="st4" d="M414.2,258.1c0,52.3-42,94.7-93.9,94.7c-51.9,0-93.9-42.4-93.9-94.7c0-52.3,42-94.7,93.9-94.7
		C372.2,163.4,414.2,205.8,414.2,258.1 M318.5,176.8c-45.5,0-82.3,36.9-82.3,82.5c0,45.6,36.8,82.5,82.3,82.5
		c45.5,0,82.3-36.9,82.3-82.5C400.8,213.7,363.9,176.8,318.5,176.8"/>
	<path class="st5" d="M350.1,231.9c18.7,0,28,10.5,28,34.3c0,34.4-29.2,51.8-57.8,51.8c-22.1,0-37.3-12.1-37.3-12.1
		s19.3,0.6,30.5-8.9c6.9-5.9,13.4-14.9,13.4-26.2C327,248.5,334.5,231.9,350.1,231.9"/>
	<path class="st5" d="M285.1,286.8c-16.2,0-27-10.1-27-33.9c0-34.4,30.3-52.7,58.9-52.7c22.1,0,38.2,13,38.2,13s-20.2-0.7-31.4,8.8
		c-6.9,5.9-13.6,15.6-13.6,26.9C310.1,269.8,303.2,286.8,285.1,286.8"/>
	<path class="st2" d="M203,396.3h17.5c8.8,0,15,0.4,18.7,1.9c4.1,1.7,6.4,5.3,6.4,10.3c0,5.3-2.8,8.5-8.7,10.1
		c6.9,1.3,10.2,4.8,10.2,10.9c0,8.8-6.5,13.3-19.3,13.3H203V396.3z M222.7,414.9c3.7,0,5.7-1.5,5.7-4.3c0-2.8-2-4.4-5.7-4.4h-2.3
		v8.6H222.7z M220.3,432.9h3c3.9,0,5.8-1.5,5.8-4.7c0-3-1.9-4.5-5.8-4.5h-3V432.9z"/>
	<path class="st2" d="M253.5,396.3H269v19.1c2-3.9,5.6-5.8,10.5-5.8c7.5,0,10.9,4.2,10.9,12.9v20.3h-15.6v-20.1
		c0-2.6-0.9-3.7-2.9-3.7c-1.8,0-2.9,1.4-2.9,3.6v20.2h-15.5V396.3z"/>
	<path class="st2" d="M314.4,409.6c6.1,0,10.7,1.2,13.3,3.1c3.2,2.3,3.7,5.7,3.7,10.9v19.2h-13.9l-0.4-3.2c-2.3,2.8-5.5,4-10,4
		c-6.4,0-10.5-3.8-10.5-10.1c0-8.5,6.1-11.4,19.8-11.4h0.5v-2c0-2.3-0.8-3.3-2.8-3.3s-3,0.9-3.2,3h-12.8
		C298.8,413.2,304.4,409.6,314.4,409.6 M314.8,428.3c-3.2,0-4.9,1.4-4.9,3.8c0,2.1,1.3,3.4,3.4,3.4c2.4,0,3.6-1.5,3.6-4.7v-2.5
		H314.8z"/>
	<path class="st2" d="M356.1,412.2c1.6-1.5,2.7-2.6,5.5-2.6c1.4,0,2.6,0.3,3.8,1v12.1c-2.4-0.7-4.3-1-5.7-1c-3.2,0-4.6,2-4.6,6.5
		v14.7h-15.9v-32.4h15.3v3.5L356.1,412.2z"/>
	<path class="st2" d="M386.8,409.6c6.1,0,10.7,1.2,13.3,3.1c3.2,2.3,3.7,5.7,3.7,10.9v19.2h-13.9l-0.4-3.2c-2.3,2.8-5.5,4-10,4
		c-6.4,0-10.5-3.8-10.5-10.1c0-8.5,6.1-11.4,19.8-11.4h0.5v-2c0-2.3-0.8-3.3-2.8-3.3c-2,0-3,0.9-3.2,3h-12.8
		C371.3,413.2,376.9,409.6,386.8,409.6 M387.3,428.3c-3.2,0-4.9,1.4-4.9,3.8c0,2.1,1.3,3.4,3.4,3.4c2.4,0,3.6-1.5,3.6-4.7v-2.5
		H387.3z"/>
	<path class="st2" d="M409,410.3h4.2v-5.6l15.3-5.3v10.9h7.3v9.5h-7.3v9.9c0,2.1,1.1,3.2,3.4,3.2c0.8,0,1.9-0.2,3.3-0.6v9.6
		c-4.1,1-7.6,1.5-10.6,1.5c-7.6,0-11.4-3.4-11.4-9.8v-13.9H409V410.3z"/>
	<path class="st2" d="M137.2,473.7h23.1c13.4,0,20,4.9,20,15.1c0,10.2-6.6,15.6-19.4,15.6H155v15.7h-17.9V473.7z M155,493.8
		c0.5,0.1,1,0.1,1.5,0.1c3.8,0,5.8-1.7,5.8-5.1c0-3.2-2-4.6-6.2-4.6H155V493.8z"/>
	<path class="st2" d="M196.8,506.5v0.9c0,3.8,1.5,5.7,4.4,5.7c2.4,0,3.6-1.1,4.1-3.9h13.2c0,7.3-6,11.6-17.3,11.6
		c-12.2,0-19.4-6.6-19.4-17c0-10.3,7.3-17,19.4-17c11.5,0,17.9,6.1,17.9,17c0,0.8-0.1,1.6-0.1,2.5H196.8z M204.9,499.8
		c0-0.3,0.1-0.6,0.1-0.9c0-2.8-1.5-4.4-4-4.4c-2.6,0-4.3,1.8-4.3,4.9v0.4H204.9z"/>
	<path class="st2" d="M222.4,487.8h4.2v-5.6l15.3-5.3v10.9h7.3v9.5h-7.3v9.9c0,2.1,1.1,3.2,3.4,3.2c0.8,0,1.9-0.2,3.3-0.6v9.6
		c-4.1,1-7.6,1.5-10.6,1.5c-7.6,0-11.4-3.4-11.4-9.8v-13.9h-4.2V487.8z"/>
	<path class="st2" d="M273,489.6c1.6-1.5,2.7-2.6,5.5-2.6c1.4,0,2.6,0.3,3.8,1v12.1c-2.4-0.7-4.3-1-5.7-1c-3.2,0-4.6,2-4.6,6.5v14.7
		H256v-32.4h15.3v3.5L273,489.6z"/>
	<path class="st2" d="M324.7,503.9c0,10.4-7.1,17-19.5,17c-12.3,0-19.4-6.5-19.4-16.9c0-10.4,7.1-17,19.4-17
		C317.6,487,324.7,493.6,324.7,503.9 M301.9,504c0,5.7,0.7,8.4,3.3,8.4c2.6,0,3.3-2.6,3.3-8.4c0-5.7-0.7-8.5-3.3-8.5
		C302.7,495.5,301.9,498.3,301.9,504"/>
	<rect x="331.1" y="473.7" class="st2" width="15.9" height="46.5"/>
	<path class="st2" d="M368.4,506.5v0.9c0,3.8,1.5,5.7,4.4,5.7c2.4,0,3.6-1.1,4.1-3.9H390c0,7.3-6,11.6-17.3,11.6
		c-12.2,0-19.4-6.6-19.4-17c0-10.3,7.3-17,19.4-17c11.5,0,17.9,6.1,17.9,17c0,0.8-0.1,1.6-0.1,2.5H368.4z M376.5,499.8
		c0-0.3,0.1-0.6,0.1-0.9c0-2.8-1.5-4.4-4-4.4c-2.6,0-4.3,1.8-4.3,4.9v0.4H376.5z"/>
	<path class="st2" d="M412.1,487.8v20c0,2.6,0.9,3.8,3,3.8c1.8,0,2.9-1.4,2.9-3.6v-20.2h15.5v27.9c0,0.5,0.1,1.9,0.3,4.5h-15v-5.1
		c-2.6,3.9-6.5,5.9-11.3,5.9c-7.5,0-10.9-4.2-10.9-12.9v-20.3H412.1z"/>
	<path class="st2" d="M441.4,492.2c0-0.4-0.1-1.9-0.3-4.5h15v5c2.6-3.9,6.5-5.8,11.2-5.8c4.5,0,7.5,1.7,10.4,5.9
		c2.2-3.8,6.1-5.9,11-5.9c7.5,0,10.9,4.2,10.9,12.9v20.3H484v-20.1c0-2.6-0.9-3.7-2.9-3.7c-1.8,0-2.8,1.2-2.8,3.5v20.3h-15.6v-20.1
		c0-2.6-0.9-3.7-2.9-3.7c-1.8,0-2.9,1.4-2.9,3.6v20.2h-15.5V492.2z"/>
</g>
</svg>
